<svg width="640" height="420" viewBox="0 0 640 420" fill="none" xmlns="http://www.w3.org/2000/svg">
  <defs>
    <linearGradient id="domainBg" x1="64" y1="24" x2="576" y2="396" gradientUnits="userSpaceOnUse">
      <stop stop-color="#FFF3E7"/>
      <stop offset="1" stop-color="#F8FAFC"/>
    </linearGradient>
    <linearGradient id="domainSky" x1="0" y1="0" x2="1" y2="1">
      <stop stop-color="#0EA5E9"/>
      <stop offset="1" stop-color="#0369A1"/>
    </linearGradient>
    <linearGradient id="domainOrange" x1="0" y1="0" x2="1" y2="1">
      <stop stop-color="#FB923C"/>
      <stop offset="1" stop-color="#EA580C"/>
    </linearGradient>
  </defs>

  <rect width="640" height="420" rx="30" fill="url(#domainBg)"/>
  <circle cx="548" cy="86" r="74" fill="#0EA5E9" fill-opacity="0.12"/>
  <circle cx="86" cy="334" r="88" fill="#FB923C" fill-opacity="0.14"/>

  <rect x="58" y="58" width="524" height="304" rx="24" fill="white" fill-opacity="0.9"/>
  <rect x="82" y="84" width="208" height="16" rx="8" fill="#0F172A" fill-opacity="0.16"/>
  <rect x="82" y="110" width="184" height="10" rx="5" fill="#0F172A" fill-opacity="0.1"/>

  <rect x="96" y="148" width="136" height="70" rx="16" fill="url(#domainSky)"/>
  <text x="164" y="190" text-anchor="middle" fill="white" font-size="20" font-family="Arial, sans-serif" font-weight="700">Corp</text>

  <rect x="252" y="148" width="136" height="70" rx="16" fill="url(#domainOrange)"/>
  <text x="320" y="190" text-anchor="middle" fill="white" font-size="20" font-family="Arial, sans-serif" font-weight="700">Bidding</text>

  <rect x="408" y="148" width="136" height="70" rx="16" fill="#0F172A" fill-opacity="0.8"/>
  <text x="476" y="190" text-anchor="middle" fill="white" font-size="20" font-family="Arial, sans-serif" font-weight="700">Message</text>

  <path d="M164 234C204 264 242 286 320 286C398 286 436 264 476 234" stroke="#0F172A" stroke-opacity="0.25" stroke-width="6" stroke-linecap="round"/>

  <rect x="206" y="296" width="228" height="44" rx="22" fill="#0EA5E9" fill-opacity="0.18"/>
  <text x="320" y="324" text-anchor="middle" fill="#0369A1" font-size="22" font-family="Arial, sans-serif" font-weight="800">ADmarket</text>
</svg>

