<svg width="640" height="420" viewBox="0 0 640 420" fill="none" xmlns="http://www.w3.org/2000/svg">
  <defs>
    <linearGradient id="trackBg" x1="68" y1="24" x2="572" y2="396" gradientUnits="userSpaceOnUse">
      <stop stop-color="#E6F4FF"/>
      <stop offset="1" stop-color="#FFF3EA"/>
    </linearGradient>
    <linearGradient id="trackSky" x1="0" y1="0" x2="1" y2="1">
      <stop stop-color="#0EA5E9"/>
      <stop offset="1" stop-color="#0369A1"/>
    </linearGradient>
    <linearGradient id="trackOrange" x1="0" y1="0" x2="1" y2="1">
      <stop stop-color="#FB923C"/>
      <stop offset="1" stop-color="#EA580C"/>
    </linearGradient>
  </defs>

  <rect width="640" height="420" rx="30" fill="url(#trackBg)"/>
  <circle cx="548" cy="82" r="70" fill="#0EA5E9" fill-opacity="0.13"/>
  <circle cx="92" cy="346" r="84" fill="#FB923C" fill-opacity="0.12"/>

  <rect x="56" y="56" width="528" height="308" rx="24" fill="white" fill-opacity="0.9"/>
  <rect x="84" y="84" width="162" height="16" rx="8" fill="#0F172A" fill-opacity="0.16"/>
  <rect x="84" y="110" width="220" height="10" rx="5" fill="#0F172A" fill-opacity="0.1"/>

  <rect x="84" y="146" width="232" height="188" rx="18" fill="#F8FAFC"/>
  <text x="106" y="176" fill="#0F172A" fill-opacity="0.7" font-size="14" font-family="Arial, sans-serif" font-weight="700">회원가입 완료</text>
  <circle cx="200" cy="240" r="56" fill="url(#trackSky)"/>
  <path d="M178 240L193 255L223 225" stroke="white" stroke-width="8" stroke-linecap="round" stroke-linejoin="round"/>
  <rect x="106" y="294" width="188" height="24" rx="12" fill="#0EA5E9" fill-opacity="0.16"/>
  <text x="200" y="310" text-anchor="middle" fill="#0369A1" font-size="12" font-family="Arial, sans-serif" font-weight="800">퀴즈 시작 준비 완료</text>

  <rect x="334" y="146" width="222" height="84" rx="16" fill="#F8FAFC"/>
  <text x="356" y="174" fill="#0F172A" fill-opacity="0.7" font-size="13" font-family="Arial, sans-serif" font-weight="700">학습 대시보드 생성</text>
  <rect x="356" y="188" width="170" height="8" rx="4" fill="#0F172A" fill-opacity="0.1"/>
  <rect x="356" y="204" width="132" height="8" rx="4" fill="#0F172A" fill-opacity="0.1"/>
  <circle cx="516" cy="196" r="14" fill="url(#trackOrange)"/>

  <rect x="334" y="250" width="222" height="84" rx="16" fill="#F8FAFC"/>
  <text x="356" y="278" fill="#0F172A" fill-opacity="0.7" font-size="13" font-family="Arial, sans-serif" font-weight="700">점수 트래킹 활성화</text>
  <rect x="356" y="296" width="178" height="12" rx="6" fill="#0EA5E9" fill-opacity="0.18"/>
  <rect x="356" y="296" width="142" height="12" rx="6" fill="url(#trackSky)"/>

  <rect x="454" y="72" width="108" height="46" rx="14" fill="url(#trackOrange)"/>
  <text x="508" y="100" text-anchor="middle" fill="white" font-size="16" font-family="Arial, sans-serif" font-weight="800">TRACK ON</text>
</svg>

